<svg width="24" height="24" viewBox="0 0 24 24" fill="none" xmlns="http://www.w3.org/2000/svg">
<path d="M4.234 19.788L19.788 4.234M15.19 1H8.81001C8.06201 1 7.006 1.44001 6.478 1.96801L1.96801 6.47801C1.44001 7.00601 1 8.06201 1 8.81001V15.19C1 15.938 1.44001 16.994 1.96801 17.522L6.478 22.032C7.006 22.56 8.06201 23 8.81001 23H15.19C15.938 23 16.994 22.56 17.522 22.032L22.032 17.522C22.56 16.994 23 15.938 23 15.19V8.81001C23 8.06201 22.56 7.00601 22.032 6.47801L17.522 1.96801C16.994 1.44001 15.938 1 15.19 1Z" stroke="white" stroke-width="1.5" stroke-linecap="round" stroke-linejoin="round"/>
</svg>
