<svg width="23" height="23" viewBox="0 0 23 23" fill="none" xmlns="http://www.w3.org/2000/svg">
<path d="M4.14588 18.875L18.875 4.14588M14.5209 1.08337H8.47921C7.77088 1.08337 6.77087 1.50005 6.27087 2.00005L2.00005 6.27089C1.50005 6.77089 1.08337 7.77088 1.08337 8.47921V14.5209C1.08337 15.2292 1.50005 16.2292 2.00005 16.7292L6.27087 21C6.77087 21.5 7.77088 21.9167 8.47921 21.9167H14.5209C15.2292 21.9167 16.2292 21.5 16.7292 21L21 16.7292C21.5 16.2292 21.9167 15.2292 21.9167 14.5209V8.47921C21.9167 7.77088 21.5 6.77089 21 6.27089L16.7292 2.00005C16.2292 1.50005 15.2292 1.08337 14.5209 1.08337Z" stroke="white" stroke-width="1.5" stroke-linecap="round" stroke-linejoin="round"/>
</svg>
