<svg width="25" height="25" viewBox="0 0 25 25" fill="none" xmlns="http://www.w3.org/2000/svg">
<path d="M19.7917 20.8333H5.20833L3.125 8.33329L8.85417 13.0208L12.5 7.29163L16.1458 13.0208L21.875 8.33329L19.7917 20.8333Z" fill="black" fill-opacity="0.15"/>
<path d="M21.875 8.33329L19.7917 20.8333H5.20833L3.125 8.33329M21.875 8.33329L16.1458 13.0208L12.5 7.29163M21.875 8.33329C22.7379 8.33329 23.4375 7.63374 23.4375 6.77079C23.4375 5.90785 22.7379 5.20829 21.875 5.20829C21.0121 5.20829 20.3125 5.90785 20.3125 6.77079C20.3125 7.63374 21.0121 8.33329 21.875 8.33329ZM12.5 7.29163L8.85417 13.0208L3.125 8.33329M12.5 7.29163C13.3629 7.29163 14.0625 6.59207 14.0625 5.72913C14.0625 4.86618 13.3629 4.16663 12.5 4.16663C11.6371 4.16663 10.9375 4.86618 10.9375 5.72913C10.9375 6.59207 11.6371 7.29163 12.5 7.29163ZM3.125 8.33329C3.98794 8.33329 4.6875 7.63374 4.6875 6.77079C4.6875 5.90785 3.98794 5.20829 3.125 5.20829C2.26206 5.20829 1.5625 5.90785 1.5625 6.77079C1.5625 7.63374 2.26206 8.33329 3.125 8.33329Z" stroke="white" stroke-width="2" stroke-linecap="round" stroke-linejoin="round"/>
</svg>
