<svg width="18" height="18" viewBox="0 0 18 18" fill="none" xmlns="http://www.w3.org/2000/svg">
<path d="M13.121 8.83025C13.5453 8.47669 13.6026 7.84613 13.2491 7.42185C12.8955 6.99757 12.2649 6.94025 11.8407 7.29381L13.121 8.83025ZM9.16625 10.8242L8.52606 11.5924C8.89691 11.9014 9.43559 11.9014 9.80643 11.5924L9.16625 10.8242ZM6.49185 7.29381C6.06757 6.94025 5.43701 6.99757 5.08344 7.42185C4.72988 7.84612 4.7872 8.47669 5.21148 8.83025L6.49185 7.29381ZM11.8407 7.29381L8.52606 10.056L9.80643 11.5924L13.121 8.83025L11.8407 7.29381ZM9.80643 10.056L6.49185 7.29381L5.21148 8.83025L8.52606 11.5924L9.80643 10.056ZM15.5 9C15.5 12.5899 12.5899 15.5 9 15.5V17.5C13.6944 17.5 17.5 13.6944 17.5 9H15.5ZM9 15.5C5.41015 15.5 2.5 12.5899 2.5 9H0.5C0.5 13.6944 4.30558 17.5 9 17.5V15.5ZM2.5 9C2.5 5.41015 5.41015 2.5 9 2.5V0.5C4.30558 0.5 0.5 4.30558 0.5 9H2.5ZM9 2.5C12.5899 2.5 15.5 5.41015 15.5 9H17.5C17.5 4.30558 13.6944 0.5 9 0.5V2.5Z" fill="white"/>
</svg>
