<svg width="24" height="24" viewBox="0 0 24 24" fill="none" xmlns="http://www.w3.org/2000/svg">
<path d="M17.7454 11.3925C18.1697 11.039 18.227 10.4084 17.8734 9.98413C17.5199 9.55985 16.8893 9.50253 16.465 9.85609L17.7454 11.3925ZM12.2438 14.6755L11.6036 15.4437C11.9745 15.7527 12.5132 15.7527 12.884 15.4437L12.2438 14.6755ZM8.02262 9.85609C7.59835 9.50253 6.96778 9.55985 6.61422 9.98413C6.26065 10.4084 6.31798 11.039 6.74225 11.3925L8.02262 9.85609ZM16.465 9.85609L11.6036 13.9073L12.884 15.4437L17.7454 11.3925L16.465 9.85609ZM12.884 13.9073L8.02262 9.85609L6.74225 11.3925L11.6036 15.4437L12.884 13.9073ZM22 12C22 17.5228 17.5228 22 12 22V24C18.6274 24 24 18.6274 24 12H22ZM12 22C6.47715 22 2 17.5228 2 12H0C0 18.6274 5.37258 24 12 24V22ZM2 12C2 6.47715 6.47715 2 12 2V0C5.37258 0 0 5.37258 0 12H2ZM12 2C17.5228 2 22 6.47715 22 12H24C24 5.37258 18.6274 0 12 0V2Z" fill="white"/>
</svg>
